# xmcd
#
# Track frame offsets: 
#        150
#        21316
#        46947
#        66730
#        88699
#        112050
#        134640
#        153291
#        175708
#        198311
#        219614
#        239784
#        258720
#        280138
#
# Disc length: 4002 seconds
#
# Revision: 0
# Processed by: cddbd v1.5.2PL0 Copyright (c) Steve Scherf et al.
# Submitted via: ExactAudioCopyFreeDBPlugin 1.0
#
DISCID=dd0fa00e
DTITLE=岡村孝子 - 岡村孝子 BEST HIT
DYEAR=1900
DGENRE=Blues
TTITLE0=夢をあきらめないで
TTITLE1=電車
TTITLE2=ピエロ
TTITLE3=夏の日の午後
TTITLE4=虹を追いかけて
TTITLE5=Believe
TTITLE6=はぐれそうな天使
TTITLE7=Good-Day ～思い出に代わるならば～
TTITLE8=ミストラル　～季節風～
TTITLE9=Baby,Baby
TTITLE10=待つわ '07
TTITLE11=琥珀色の思い出'08
TTITLE12=夢をあきらめないで
TTITLE13=待つわ'07
EXTD=
EXTT0=
EXTT1=
EXTT2=
EXTT3=
EXTT4=
EXTT5=
EXTT6=
EXTT7=
EXTT8=
EXTT9=
EXTT10=
EXTT11=
EXTT12=
EXTT13=
PLAYORDER=
